<svg width="151" height="49" viewBox="0 0 151 49" fill="none" xmlns="http://www.w3.org/2000/svg">
<rect width="150.705" height="49" rx="10" fill="white"/>
<path d="M75.5646 25.9212C72.9337 25.9212 70.7238 27.9206 70.7238 30.7619C70.7238 33.498 72.9337 35.6027 75.5646 35.6027C78.1955 35.6027 80.4054 33.6033 80.4054 30.7619C80.4054 27.9206 78.1955 25.9212 75.5646 25.9212ZM75.5646 33.6033C74.0913 33.6033 72.8285 32.4457 72.8285 30.6567C72.8285 28.973 74.0913 27.7102 75.5646 27.7102C77.0379 27.7102 78.3007 28.8677 78.3007 30.6567C78.3007 32.4457 77.0379 33.6033 75.5646 33.6033ZM65.1464 25.9212C62.5155 25.9212 60.3056 27.9206 60.3056 30.7619C60.3056 33.498 62.5155 35.6027 65.1464 35.6027C67.7773 35.6027 69.9872 33.6033 69.9872 30.7619C69.9872 27.9206 67.7773 25.9212 65.1464 25.9212ZM65.1464 33.6033C63.6731 33.6033 62.4103 32.4457 62.4103 30.6567C62.4103 28.973 63.6731 27.7102 65.1464 27.7102C66.6197 27.7102 67.8825 28.8677 67.8825 30.6567C67.8825 32.4457 66.6197 33.6033 65.1464 33.6033ZM52.6235 27.3944V29.3939H57.4643C57.3591 30.5515 56.9381 31.3934 56.3067 31.9195C55.5701 32.6562 54.5177 33.3928 52.5183 33.3928C49.4665 33.3928 47.1513 30.9724 47.1513 27.9206C47.1513 24.8688 49.4665 22.4484 52.5183 22.4484C54.0968 22.4484 55.3596 23.0798 56.2015 23.9217L57.6748 22.4484C56.4119 21.2909 54.8334 20.3438 52.5183 20.3438C48.4141 20.3438 44.9414 23.7112 44.9414 27.8154C44.9414 31.9195 48.4141 35.287 52.5183 35.287C54.7282 35.287 56.4119 34.5504 57.6748 33.1823C59.0428 31.8143 59.4637 29.9201 59.4637 28.4468C59.4637 28.0259 59.4637 27.4997 59.3585 27.184H52.6235V27.3944ZM103.662 28.973C103.241 27.9206 102.084 25.9212 99.558 25.9212C97.0324 25.9212 95.033 27.8154 95.033 30.7619C95.033 33.498 97.0324 35.6027 99.7685 35.6027C101.978 35.6027 103.241 34.2347 103.767 33.498L102.084 32.4457C101.557 33.2876 100.821 33.8137 99.7685 33.8137C98.7162 33.8137 97.9795 33.2876 97.4533 32.3405L103.873 29.7096L103.662 28.973ZM97.1376 30.5515C97.1376 28.6573 98.6109 27.7102 99.6633 27.7102C100.505 27.7102 101.242 28.1311 101.452 28.7625L97.1376 30.5515ZM91.9812 35.1818H94.0858V21.0804H91.9812V35.1818ZM88.5084 26.9735C87.9823 26.4473 87.0351 25.9212 85.8776 25.9212C83.4572 25.9212 81.2473 28.0259 81.2473 30.7619C81.2473 33.498 83.4572 35.4975 85.8776 35.4975C87.0351 35.4975 87.9823 34.9713 88.4032 34.4452H88.5084V35.1818C88.5084 36.9708 87.5613 38.0231 85.9828 38.0231C84.72 38.0231 83.8781 37.076 83.5624 36.3394L81.7734 37.076C82.2996 38.3388 83.6676 39.9173 85.9828 39.9173C88.5084 39.9173 90.5079 38.4441 90.5079 34.8661V26.2369H88.5084V26.9735ZM86.088 33.6033C84.6148 33.6033 83.4572 32.3405 83.4572 30.7619C83.4572 29.0782 84.72 27.8154 86.088 27.8154C87.5613 27.8154 88.6137 29.0782 88.6137 30.7619C88.6137 32.4457 87.4561 33.6033 86.088 33.6033ZM113.554 21.0804H108.503V35.1818H110.608V29.8148H113.554C115.869 29.8148 118.185 28.1311 118.185 25.395C118.185 22.6589 115.869 21.0804 113.554 21.0804ZM113.659 27.9206H110.713V23.0798H113.659C115.238 23.0798 116.08 24.3427 116.08 25.5002C116.08 26.5526 115.238 27.9206 113.659 27.9206ZM126.708 25.9212C125.235 25.9212 123.551 26.5526 122.92 28.1311L124.814 28.8677C125.235 28.1311 125.972 27.8154 126.708 27.8154C127.761 27.8154 128.918 28.4468 128.918 29.6044V29.7096C128.497 29.4991 127.761 29.1834 126.708 29.1834C124.709 29.1834 122.604 30.341 122.604 32.3405C122.604 34.2347 124.288 35.4975 126.077 35.4975C127.445 35.4975 128.287 34.8661 128.813 34.1294H128.918V35.1818H130.918V29.8148C130.918 27.2892 129.024 25.9212 126.708 25.9212ZM126.393 33.6033C125.656 33.6033 124.709 33.2876 124.709 32.4457C124.709 31.3934 125.867 30.9724 126.919 30.9724C127.866 30.9724 128.287 31.1829 128.813 31.3934C128.708 32.6562 127.656 33.6033 126.393 33.6033ZM138.39 26.1316L135.969 32.2352H135.864L133.338 26.1316H131.023L134.812 34.6556L132.707 39.3912H134.917L140.705 26.1316H138.39ZM119.342 35.1818H121.447V21.0804H119.342V35.1818Z" fill="black"/>
<path d="M10.5262 9.82227C10.2105 10.138 10 10.6641 10 11.4008V36.3413C10 37.078 10.2105 37.6041 10.5262 37.9198L10.6314 38.0251L24.6276 24.0289V23.8184V23.608L10.5262 9.82227Z" fill="url(#paint0_linear_1093_3480)"/>
<path d="M29.2573 28.7636L24.627 24.1333V23.9228V23.7123L29.2573 19.082L29.3625 19.1873L34.8347 22.3443C36.4132 23.2914 36.4132 24.6595 34.8347 25.6066L29.2573 28.7636Z" fill="url(#paint1_linear_1093_3480)"/>
<path d="M29.3643 28.6594L24.6287 23.9238L10.5273 38.0252C11.0535 38.5514 11.8954 38.6566 12.8425 38.1305L29.3643 28.6594Z" fill="url(#paint2_linear_1093_3480)"/>
<path d="M29.3643 19.1877L12.8425 9.82183C11.8954 9.29565 11.0535 9.29565 10.5273 9.92706L24.6287 24.0285L29.3643 19.1877Z" fill="url(#paint3_linear_1093_3480)"/>
<path opacity="0.2" d="M29.2571 28.5547L12.8405 37.8153C11.8934 38.3415 11.0516 38.3415 10.6306 37.8153L10.5254 37.9205L10.6306 38.0258C11.1568 38.552 11.9987 38.552 12.8405 38.0258L29.2571 28.5547Z" fill="black"/>
<path opacity="0.12" d="M10.5262 37.8148C10.2105 37.4991 10 36.973 10 36.2363V36.4468C10 37.1834 10.2105 37.7096 10.5262 38.0253V37.8148Z" fill="black"/>
<path opacity="0.12" d="M34.8372 25.3971L29.2598 28.5541L29.365 28.6594L34.8372 25.3971C35.5738 25.0814 35.9948 24.45 35.9948 23.9238C35.9948 24.45 35.5738 24.9762 34.8372 25.3971Z" fill="black"/>
<path opacity="0.25" d="M12.8413 9.92609L34.8353 22.449C35.5719 22.8699 35.9929 23.3961 35.9929 23.9223C35.9929 23.2909 35.5719 22.7647 34.8353 22.3437L12.8413 9.92609C11.2628 8.87374 10 9.71562 10 11.5046V11.7151C10 9.82085 11.2628 9.08421 12.8413 9.92609Z" fill="white"/>
<path d="M45.3594 16.028V9.29297H47.4641C48.5164 9.29297 49.3583 9.60867 49.9897 10.2401C50.6211 10.8715 50.9368 11.7134 50.9368 12.6605C50.9368 13.7128 50.6211 14.4495 49.9897 15.0809C49.253 15.7123 48.4112 16.028 47.4641 16.028H45.3594ZM46.2012 15.1861H47.3588C48.0955 15.1861 48.7269 14.9756 49.253 14.5547C49.674 14.1337 49.9897 13.5023 49.9897 12.6605C49.9897 11.8186 49.7792 11.1872 49.253 10.7662C48.8321 10.3453 48.2007 10.1348 47.3588 10.1348H46.2012V15.1861Z" fill="black"/>
<path d="M52.0938 16.028V9.29297H52.9356V16.028H52.0938Z" fill="black"/>
<path d="M56.4067 16.1327C55.8805 16.1327 55.4596 15.9223 54.9334 15.6066C54.5125 15.2909 54.1968 14.8699 53.9863 14.2385L54.8282 13.9228C54.9334 14.3437 55.1439 14.6595 55.4596 14.8699C55.7753 15.0804 56.091 15.2909 56.4067 15.2909C56.8277 15.2909 57.1434 15.1856 57.3538 14.9752C57.6695 14.7647 57.7748 14.5542 57.7748 14.1333C57.7748 13.7123 57.6695 13.5019 57.3538 13.2914C57.0381 13.0809 56.6172 12.8705 56.091 12.7652C55.4596 12.5548 55.0387 12.3443 54.723 12.0286C54.4073 11.7129 54.302 11.3972 54.302 10.871C54.302 10.3448 54.5125 9.92391 54.8282 9.6082C55.2491 9.2925 55.6701 9.08203 56.3015 9.08203C56.8277 9.08203 57.3538 9.18727 57.6695 9.50297C57.9852 9.81867 58.3009 10.1344 58.4062 10.4501L57.6695 10.7658C57.5643 10.5553 57.4591 10.3448 57.2486 10.1344C57.0381 9.92391 56.7224 9.81867 56.4067 9.81867C56.091 9.81867 55.7753 9.92391 55.5648 10.1344C55.3544 10.3448 55.2491 10.5553 55.2491 10.871C55.2491 11.0815 55.3544 11.292 55.5648 11.5024C55.7753 11.7129 56.091 11.8181 56.512 11.9234C56.8277 12.0286 57.1434 12.1338 57.3538 12.2391C57.5643 12.3443 57.7748 12.4495 57.9852 12.66C58.1957 12.8705 58.4062 13.0809 58.5114 13.2914C58.6166 13.5019 58.7219 13.8176 58.7219 14.1333C58.7219 14.449 58.6166 14.7647 58.5114 14.9752C58.4062 15.1856 58.1957 15.3961 57.9852 15.6066C57.7748 15.7118 57.5643 15.9223 57.2486 15.9223C56.9329 15.9223 56.7224 16.1327 56.4067 16.1327Z" fill="black"/>
<path d="M60.8282 16.028H59.9863V9.29297H62.3015C62.8277 9.29297 63.3538 9.50344 63.7748 9.81914C64.1957 10.2401 64.4062 10.661 64.4062 11.2924C64.4062 11.9238 64.1957 12.3448 63.7748 12.7657C63.3538 13.1866 62.8277 13.2919 62.3015 13.2919H60.8282V16.028ZM60.8282 12.45H62.3015C62.6172 12.45 62.9329 12.3448 63.1434 12.1343C63.3538 11.9238 63.4591 11.6081 63.4591 11.2924C63.4591 10.9767 63.3538 10.7662 63.1434 10.4505C62.9329 10.2401 62.6172 10.0296 62.3015 10.0296H60.8282V12.45Z" fill="black"/>
<path d="M71.0335 15.1856C70.4021 15.9223 69.5602 16.238 68.5079 16.238C67.5608 16.238 66.7189 15.9223 65.9823 15.1856C65.3509 14.449 65.0352 13.7123 65.0352 12.66C65.0352 11.7129 65.3509 10.871 65.9823 10.1344C66.6137 9.39773 67.4555 9.08203 68.5079 9.08203C69.455 9.08203 70.2969 9.39773 71.0335 10.1344C71.6649 10.871 72.0859 11.6077 72.0859 12.66C71.9806 13.6071 71.6649 14.449 71.0335 15.1856ZM66.6137 14.5542C67.1398 15.0804 67.7712 15.2909 68.4027 15.2909C69.1393 15.2909 69.7707 15.0804 70.1916 14.5542C70.7178 14.028 70.9283 13.3966 70.9283 12.66C70.9283 11.9234 70.823 11.1867 70.2969 10.6605C69.7707 10.1344 69.1393 9.92391 68.5079 9.92391C67.7713 9.92391 67.1398 10.1344 66.7189 10.6605C66.1927 11.1867 65.9823 11.8181 65.9823 12.5548C65.9823 13.2914 66.1927 14.028 66.6137 14.5542Z" fill="black"/>
<path d="M73.2441 16.028V9.29297H74.2965L77.5587 14.5547V13.2919V9.29297H78.4006V16.028H77.4535L73.9808 10.4505V11.7134V15.9227L73.2441 16.028Z" fill="black"/>
<path d="M79.875 16.028V9.29297H80.7169V16.028H79.875Z" fill="black"/>
<path d="M82.2949 16.028V9.29297H84.7153C85.2415 9.29297 85.6624 9.50344 86.0834 9.81914C86.5043 10.1348 86.7148 10.661 86.7148 11.1872C86.7148 11.5029 86.6095 11.8186 86.5043 12.0291C86.2938 12.2395 86.0834 12.45 85.8729 12.5552C86.1886 12.6605 86.5043 12.8709 86.7148 13.1866C86.9252 13.5023 87.0305 13.818 87.0305 14.1337C87.0305 14.6599 86.82 15.1861 86.3991 15.5018C85.8729 15.8175 85.452 16.028 84.9258 16.028H82.2949ZM83.1368 12.1343H84.7153C85.031 12.1343 85.3467 12.0291 85.5572 11.8186C85.7677 11.6081 85.8729 11.3977 85.8729 11.082C85.8729 10.8715 85.7677 10.5558 85.5572 10.3453C85.3467 10.1348 85.1363 10.0296 84.8205 10.0296H83.242L83.1368 12.1343ZM83.1368 15.1861H84.9258C85.2415 15.1861 85.5572 15.0809 85.7677 14.8704C85.9781 14.6599 86.0834 14.3442 86.0834 14.1337C86.0834 13.818 85.9781 13.6076 85.7677 13.3971C85.5572 13.1866 85.2415 13.0814 84.9258 13.0814H83.242L83.1368 15.1861Z" fill="black"/>
<path d="M88.084 16.028V9.29297H88.9259V15.1861H91.8724V16.028H88.084Z" fill="black"/>
<path d="M96.9247 10.0296H93.8729V12.1343H96.609V12.9762H93.8729V15.0809H96.9247V16.028H92.9258V9.29297H96.9247V10.0296Z" fill="black"/>
<path d="M104.499 10.0296H101.447V12.1343H104.183V12.9762H101.447V15.0809H104.499V16.028H100.5V9.29297H104.499V10.0296Z" fill="black"/>
<path d="M105.867 16.028V9.29297H106.92L110.182 14.5547V13.2919V9.29297H111.024V16.028H110.182L106.709 10.4505V11.7134V15.9227L105.867 16.028Z" fill="black"/>
<defs>
<linearGradient id="paint0_linear_1093_3480" x1="23.3228" y1="11.1716" x2="4.38732" y2="30.1069" gradientUnits="userSpaceOnUse">
<stop stop-color="#00A0FF"/>
<stop offset="0.00657445" stop-color="#00A1FF"/>
<stop offset="0.2601" stop-color="#00BEFF"/>
<stop offset="0.5122" stop-color="#00D2FF"/>
<stop offset="0.7604" stop-color="#00DFFF"/>
<stop offset="1" stop-color="#00E3FF"/>
</linearGradient>
<linearGradient id="paint1_linear_1093_3480" x1="36.914" y1="23.9228" x2="9.61306" y2="23.9228" gradientUnits="userSpaceOnUse">
<stop stop-color="#FFE000"/>
<stop offset="0.4087" stop-color="#FFBD00"/>
<stop offset="0.7754" stop-color="#FFA500"/>
<stop offset="1" stop-color="#FF9C00"/>
</linearGradient>
<linearGradient id="paint2_linear_1093_3480" x1="26.7527" y1="26.5143" x2="1.07488" y2="52.1922" gradientUnits="userSpaceOnUse">
<stop stop-color="#FF3A44"/>
<stop offset="1" stop-color="#C31162"/>
</linearGradient>
<linearGradient id="paint3_linear_1093_3480" x1="6.94895" y1="1.58176" x2="18.4153" y2="13.048" gradientUnits="userSpaceOnUse">
<stop stop-color="#32A071"/>
<stop offset="0.0685" stop-color="#2DA771"/>
<stop offset="0.4762" stop-color="#15CF74"/>
<stop offset="0.8009" stop-color="#06E775"/>
<stop offset="1" stop-color="#00F076"/>
</linearGradient>
</defs>
</svg>
